<svg id="Capa_1" enable-background="new 0 0 512 512" fill="#1f6939" height="512" viewBox="0 0 512 512" width="512" xmlns="http://www.w3.org/2000/svg"><g><path d="m484.294 277.991c-.751-39.697-13.389-79.064-35.587-110.849-22.32-31.96-53.409-55.083-87.537-65.111-2.151-.632-4.343-1.194-6.547-1.731.395-.417.797-.821 1.186-1.247 11.137-12.185 17.92-26.794 19.614-42.245.497-4.524-1.726-8.919-5.665-11.2-13.284-7.685-28.856-10.894-45.041-9.276-14.177 1.415-26.76 5.676-36.387 12.321-2.061 1.423-4.044 2.911-5.95 4.455.912-7.735 1.843-14.481 2.693-19.306 2.505-14.212-5.983-28.12-19.77-32.358l-.502-.154c-8.181-2.538-16.983-1.3-24.146 3.395-7.197 4.717-11.866 12.338-12.81 20.908-2.132 19.355-1.419 47.043.107 69.133-12.42-2.67-32.375-1.245-33.371-1.163-14.72 1.213-29.635 4.319-43.751 8.467-34.129 10.029-65.217 33.152-87.537 65.112-22.197 31.784-34.836 71.151-35.587 110.849-.846 44.689 11.197 91.116 33.91 130.727 22.839 39.831 55.498 71.066 91.96 87.949 16.716 7.74 37.492 11.737 51.668 14.07 12.915 2.125 27.878 1.861 40.149-3.071 4.038-1.623 7.578-3.13 10.607-4.515 3.029 1.385 6.569 2.892 10.608 4.515 11.854 4.763 27.684 5.123 40.15 3.071 13.684-2.253 33.782-6.097 50.246-13.426 3.775-1.68 5.472-6.102 3.792-9.876-1.68-3.775-6.106-5.473-9.876-3.792-14.891 6.628-33.723 10.213-46.592 12.331-3.401.559-9.983.774-18.538.604-4.584-.09-9.107-1.013-13.448-2.736 11.649-7.557 25.787-17.617 36.609-28.923 28.883-30.177 49.861-72.262 59.07-118.503 9.179-46.097 6.283-94.367-8.158-135.919-3.206-9.225-7.118-18.221-11.625-26.737-1.932-3.65-6.461-5.047-10.111-3.112-3.651 1.933-5.045 6.46-3.112 10.112 4.153 7.847 7.759 16.14 10.717 24.65 27.986 80.531 7.973 181.115-47.589 239.166-12.062 12.602-29.207 23.857-41.052 31.227-14.881 9.258-32.074 13.028-49.42 10.172-13.312-2.192-32.749-5.911-47.808-12.883-69.547-32.203-118.836-118.342-117.199-204.818.696-36.762 12.378-73.187 32.895-102.565 20.38-29.181 48.609-50.249 79.489-59.323 6.44-1.892 13.572-3.31 20.47-4.682 31.302-6.218 62.005-3.639 90.892 10.77 19.484 9.719 36.636 23.832 50.365 40.698 2.608 3.205 7.321 3.689 10.524 1.079 3.205-2.608 3.688-7.32 1.079-10.524-8.327-10.23-17.581-19.282-27.526-27.067 10.901-.871 21.676-3.905 31.294-9.023 2.863-1.524 5.644-3.247 8.351-5.128 5.612 1.134 11.259 2.351 16.456 3.879 30.878 9.072 59.108 30.141 79.488 59.322 20.517 29.379 32.199 65.804 32.894 102.565.69 36.411-7.513 73.537-23.721 107.368-15.994 33.386-38.709 61.408-65.69 81.036-3.341 2.43-4.079 7.109-1.649 10.45 2.432 3.342 7.111 4.079 10.451 1.648 59.543-43.316 97.056-122.13 95.568-200.786zm-236.683-178.922c-1.477-.435-2.961-.843-4.451-1.232-1.68-21.848-2.622-50.832-.444-70.604.453-4.116 2.691-7.773 6.14-10.034 2.25-1.475 4.839-2.233 7.46-2.233 1.356 0 2.722.204 4.053.616l.566.174c6.558 2.016 10.6 8.658 9.403 15.452-2.717 15.429-6.108 48.183-7.399 73.255-.959-.382-1.917-.764-2.886-1.142-4.084-1.593-8.236-3.014-12.442-4.252zm77.505 5.359c-14.173 7.542-32.117 9.51-47.45 5.332.421-9.878 1.251-21.502 2.269-32.896 4.597-5.934 10.298-11.345 16.892-15.896 7.551-5.211 17.708-8.581 29.375-9.746 12.219-1.22 23.942.931 34.049 6.23-1.739 11.442-7.064 22.292-15.488 31.51-5.831 6.381-12.625 11.73-19.647 15.466z"/></g></svg>