<svg height="512" viewBox="0 0 60 60" width="512" xmlns="http://www.w3.org/2000/svg"><g id="032---Blood-Transfusion"><path id="Shape" d="m17 34.7c-.0744581 7.2591802 5.7410102 13.2088516 13 13.3 7.2589898-.0911484 13.0744581-6.0408198 13-13.3 0-8.2-9.021-19.031-11.787-22.154-.3149723-.334125-.7538191-.5235316-1.213-.5235316s-.8980277.1894066-1.213.5235316c-2.766 3.126-11.787 13.954-11.787 22.154zm24 0c.0756446 6.1551038-4.8450888 11.210039-11 11.3-6.1549112-.089961-11.0756446-5.1448962-11-11.3 0-7.362 8.608-17.759 11-20.505 2.393 2.75 11 13.147 11 20.505z"/><path id="Shape" d="m22 35.7c.5522847 0 1-.4477153 1-1 0-3.28 2.983-9.1 7.785-15.191.3421404-.4335435.2680435-1.0623596-.1655-1.4045s-1.0623596-.2680435-1.4045.1655c-2.47 3.136-8.215 11.007-8.215 16.43 0 .5522847.4477153 1 1 1z"/><path id="Shape" d="m24.021 38.495c-.1740587-.3208986-.5091545-.5214467-.8742151-.5232002-.3650607-.0017534-.7020675.1955665-.8792006.5147784-.1771332.3192118-.1662412.7095836.0284157 1.0184218.2747736.4694687.5903239.9138491.943 1.328.3589851.4202887.9907113.4699851 1.411.111s.4699851-.9907113.111-1.411c-.2762388-.3239346-.5238349-.6712383-.74-1.038z"/><path id="Shape" d="m3.476 30.831c.41030306.280126.96721045.1963936 1.277-.192.187-.219-.364.509 3.047-4.039.21435937-.2858125.25995645-.6642734.11961526-.9928203-.14034118-.3285469-.44529947-.5572656-.80000001-.6-.35470055-.0427345-.7052559.1070078-.91961525.3928203l-.947 1.262c1.52462848-10.9363799 10.0000591-19.60159528 20.9-21.368.353157-.05466164.650326-.2935781.7795661-.62675189.1292402-.33317378.0709169-.70998785-.153-.9885-.2239169-.27851214-.5794091-.41640975-.9325661-.36174811-12.0739743 1.95316784-21.35941433 11.7250972-22.694 23.883l-1.353-1.8c-.21435935-.2858125-.5649147-.4355548-.91961525-.3928204-.35470055.0427345-.65965883.2714532-.80000002.6000001-.14034118.3285469-.0947441.7070078.11961527.9928203 3.115 4.153 2.994 4.052 3.276 4.231z"/><path id="Shape" d="m30.9 55.581c-.159-.344-.507-.535-4.3-3.381-.2858125-.2143594-.6642734-.2599564-.9928203-.1196152-.3285469.1403411-.5572656.4452994-.6.8-.0427344.3547005.1070078.7052558.3928203.9196152l1.262.947c-10.9363799-1.5246285-19.60159528-10.0000591-21.368-20.9-.08449957-.5459335-.59556652-.9199996-1.1415-.8355s-.91999957.5955665-.8355 1.1415c1.95316784 12.0739743 11.7250972 21.3594143 23.883 22.694l-1.8 1.353c-.4418278.3313708-.5313708.9581722-.2 1.4s.9581722.5313708 1.4.2c5.094-3.821 3.8-2.84 4.039-3.047.3493785-.2821773.4576208-.7682307.261-1.172z"/><path id="Shape" d="m34.8.4c-.3313708-.4418278-.9581722-.53137085-1.4-.2-5.094 3.821-3.8 2.84-4.039 3.047-.2271585.18398286-.3591213.46068056-.3591213.753s.1319628.56901714.3591213.753c.015.013.022.034.039.047 4.265 3.2 4.14 3.2 4.6 3.2.4304304 0 .8125693-.27543009.9486833-.68377223s-.004339-.85796953-.3486833-1.11622777l-1.262-.947c10.9363799 1.52462848 19.6015953 10.0000591 21.368 20.9.0546616.353157.2935781.650326.6267519.7795661.3331738.1292402.7099878.0709169.9885-.153.2785121-.2239169.4164097-.5794091.3617481-.9325661-1.9531678-12.0739743-11.7250972-21.35941433-23.883-22.694l1.8-1.353c.2121732-.15912989.3524422-.39602771.3899495-.65857864s-.0308196-.52924817-.1899495-.74142136z"/><path id="Shape" d="m56.755 29.365c-.1828702-.230345-.4608906-.3646078-.755-.3646078s-.5721298.1342628-.755.3646078c-.188.219.377-.527-3.045 4.035-.2143594.2858125-.2599564.6642734-.1196152.9928203.1403411.3285469.4452994.5572656.8.6.3547005.0427344.7052558-.1070078.9196152-.3928203l.947-1.262c-1.5246285 10.9363799-10.0000591 19.6015953-20.9 21.368-.5459335.0844996-.9199996.5955665-.8355 1.1415s.5955665.9199996 1.1415.8355c12.0739743-1.9531678 21.3594143-11.7250972 22.694-23.883l1.353 1.8c.2143594.2858125.5649147.4355547.9196152.3928203.3547006-.0427344.6596589-.2714531.8-.6.1403412-.3285469.0947442-.7070078-.1196152-.9928203-3.833-5.11-2.833-3.788-3.045-4.035z"/></g></svg>