<svg height="512" viewBox="0 0 60 50" width="512" xmlns="http://www.w3.org/2000/svg" fill="#FFF"><g id="Page-1" fill="#000"><g id="039---LDL" fill="#000" fill-rule="nonzero" transform="translate(-1)"><path id="Shape" d="m33 25h-3c-.5522847 0-1 .4477153-1 1v10c0 .5522847.4477153 1 1 1h3c2.209139 0 4-1.790861 4-4v-4c0-2.209139-1.790861-4-4-4zm2 8c0 1.1045695-.8954305 2-2 2h-2v-8h2c1.1045695 0 2 .8954305 2 2z"/><path id="Shape" d="m40 37h6c.5522847 0 1-.4477153 1-1s-.4477153-1-1-1h-5v-9c0-.5522847-.4477153-1-1-1s-1 .4477153-1 1v10c0 .5522847.4477153 1 1 1z"/><path id="Shape" d="m21 37h6c.5522847 0 1-.4477153 1-1s-.4477153-1-1-1h-5v-9c0-.5522847-.4477153-1-1-1s-1 .4477153-1 1v10c0 .5522847.4477153 1 1 1z"/><path id="Shape" d="m8 37c-1.65685425 0-3 1.3431458-3 3 0 .5522847.44771525 1 1 1s1-.4477153 1-1 .44771525-1 1-1 1-.4477153 1-1-.44771525-1-1-1z"/><path id="Shape" d="m56 13c-1.3750564.0020649-2.6878081.5737238-3.626 1.579-2.8496533-1.174394-5.8647461-1.8980567-8.937-2.145-2.7131134-4.11195407-5.698806-8.03741998-8.937-11.75-.3877757-.41627115-.9310961-.65268114-1.5-.65268114s-1.1122243.23640999-1.5.65268114c-4.2040242 4.79688529-7.9578421 9.970352-11.214 15.455-10.731 4.427-17.243 11.677-16.533 18.309-2.1598303 1.6456286-3.17160054 4.3928959-2.59502627 7.0462942s2.63721539 4.7330413 5.28520967 5.3339462c2.64799427.600905 5.4044327-.385606 7.0698166-2.5302404 2.6140701.8584536 5.3283106 1.3747475 8.075 1.536 3.1944346 2.689709 7.2360036 4.1651012 11.412 4.166 7.0845917-.0413924 13.4859931-4.2347526 16.354-10.713 7.949-4.718 12.094-11.047 10.82-16.6-.1135078-.4705792-.264318-.9313697-.451-1.378 1.3204063-1.4636811 1.652293-3.5688324.8462515-5.3677578-.8060416-1.7989253-2.5980311-2.9524348-4.5692515-2.9412422zm0 2c1.6568542 0 3 1.3431458 3 3s-1.3431458 3-3 3-3-1.3431458-3-3 1.3431458-3 3-3zm-23.006-13c2.673 3.058 16.006 18.86 16.006 29.679.0008911 2.1283354-.4099919 4.2367426-1.21 6.209-3.9588406 2.2177604-8.221034 3.844004-12.651 4.827-4.1506119.9642993-8.4125594 1.3629109-12.67 1.185h-.041c-3.4620148-3.1185173-5.4353954-7.561532-5.428-12.221 0-10.819 13.333-26.621 15.994-29.679zm-24.994 43c-2.76142375 0-5-2.2385763-5-5s2.23857625-5 5-5c2.7614237 0 5 2.2385763 5 5-.0033061 2.7600532-2.2399468 4.9966939-5 5zm0-12c-.78371431.002945-1.56130765.1381787-2.3.4.051-4.98 5.093-10.524 13.022-14.362-2.177 4.285-3.722 8.712-3.722 12.641-.0060076 4.3647413 1.538864 8.5896586 4.359 11.921-1.6403967-.2177253-3.2588023-.5774082-4.837-1.075.8405899-2.1520197.5625159-4.5804859-.7427765-6.4867891-1.3052923-1.9063032-3.4688665-3.0437215-5.7792235-3.0382109zm25 15c-2.729974-.0003237-5.4123948-.7146247-7.781-2.072 3.4884853-.0647907 6.9610702-.4880151 10.363-1.263 3.6255683-.8164667 7.1491881-2.0332659 10.506-3.628-2.946652 4.3382095-7.8437231 6.9435201-13.088 6.963zm17.413-11.761c.3837707-1.4898221.5809477-3.0215549.587-4.56 0-5.307-2.814-11.523-6.193-17.073 2.233184.2873293 4.4209486.8565311 6.511 1.694-.2051214.5435639-.3127701 1.1190446-.318 1.7-.0071965 1.6990641.8525231 3.2845022 2.2804085 4.205379 1.4278853.9208767 3.226787 1.0500457 4.7715915.342621.062.191.125.38.174.586.963 4.201-1.997 9.072-7.813 13.105z"/><path id="Shape" d="m31.4 22.525c.3751985.5068459.9681352.8062196 1.5987426.807205.6306075.0009853 1.2244769-.296534 1.6012574-.802205l4-5.334c.4521525-.6060157.5238955-1.4152118.185416-2.0913246-.3384796-.6761129-1.0293104-1.1035448-1.785416-1.1046754v-4c0-1.1045695-.8954305-2-2-2h-4c-1.1045695 0-2 .8954305-2 2v4c-.7575441 0-1.4500704.4280048-1.7888544 1.1055728-.338784.6775681-.2656721 1.4883919.1888544 2.0944272zm-1.4-6.525c.5522847 0 1-.4477153 1-1v-5h4v5c0 .5522847.4477153 1 1 1h1l-4 5.33-4-5.33z"/></g></g></svg>