<?xml version="1.0" encoding="utf-8"?>
<!-- Generator: Adobe Illustrator 19.0.0, SVG Export Plug-In . SVG Version: 6.00 Build 0)  -->
<svg version="1.1" id="Layer_1" xmlns="http://www.w3.org/2000/svg" xmlns:xlink="http://www.w3.org/1999/xlink" x="0px" y="0px"
	 viewBox="0 0 54.6 90.8" style="enable-background:new 0 0 54.6 90.8;" xml:space="preserve">
<style type="text/css">
	.st0{fill:#3DB54A;}
	.st1{fill:url(#XMLID_139_);}
	.st2{fill:#FFFFFF;}
</style>
<g id="XMLID_2_">
	<path id="XMLID_21_" class="st0" d="M32.1,98.8"/>
	<g id="XMLID_3_">
		<path id="XMLID_20_" class="st0" d="M-35.6-13.1"/>
		<g id="XMLID_4_">
			
				<linearGradient id="XMLID_139_" gradientUnits="userSpaceOnUse" x1="-65.1279" y1="58.9229" x2="2.0726" y2="58.9229" gradientTransform="matrix(0.7071 -0.7071 0.7071 0.7071 7.9916 -17.4222)">
				<stop  offset="4.475343e-007" style="stop-color:#8DC641"/>
				<stop  offset="1" style="stop-color:#7FC347"/>
			</linearGradient>
			<path id="XMLID_19_" class="st1" d="M27.3,90.5c-6-3.3-18.5-11.4-24.3-25.8C-5.3,43.8,4.7,17.3,27.4,0l0,0
				C50,17.3,60,43.8,51.7,64.7C45.9,79.1,33.4,87.2,27.3,90.5"/>
			<path id="XMLID_18_" class="st2" d="M27.3,30.1L27.3,30.1c0.4,0,0.7,0.3,0.7,0.7v59.4c0,0.4-0.3,0.7-0.7,0.7h0
				c-0.4,0-0.7-0.3-0.7-0.7V30.7C26.6,30.4,26.9,30.1,27.3,30.1z"/>
			<path id="XMLID_17_" class="st2" d="M48.3,53.2L48.3,53.2c0.1,0.2,0.1,0.5-0.1,0.7L27.9,69.1c-0.2,0.2-0.6,0.1-0.7-0.2l0,0
				c-0.1-0.2-0.1-0.5,0.1-0.7l20.2-15.2C47.8,52.9,48.1,53,48.3,53.2z"/>
			<path id="XMLID_16_" class="st2" d="M6.6,53.6L6.6,53.6c-0.1,0.2-0.1,0.5,0.1,0.7L27,69.4c0.2,0.2,0.6,0.1,0.7-0.2l0,0
				c0.1-0.2,0.1-0.5-0.1-0.7L7.3,53.4C7.1,53.2,6.8,53.3,6.6,53.6z"/>
			<path id="XMLID_15_" class="st2" d="M42.3,43.9L42.3,43.9c0.1,0.2,0.1,0.5-0.1,0.6l-14.2,9.2c-0.2,0.1-0.5,0.1-0.7-0.1l0,0
				c-0.1-0.2-0.1-0.5,0.1-0.6l14.2-9.2C41.8,43.6,42.1,43.7,42.3,43.9z"/>
			<path id="XMLID_14_" class="st2" d="M35.9,35.1L35.9,35.1c0.1,0.2,0,0.4-0.1,0.5l-7.9,4.9c-0.2,0.1-0.4,0.1-0.5-0.1l0,0
				c-0.1-0.2,0-0.4,0.1-0.5l7.9-4.9C35.6,34.9,35.8,34.9,35.9,35.1z"/>
			<g id="XMLID_7_">
				<path id="XMLID_13_" class="st2" d="M27.2,26.6c0.4,0,0.8-0.9,0.8-1.6c0-0.8-0.4-1.7-0.8-1.7s-0.8,0.9-0.8,1.7
					C26.4,25.7,26.8,26.6,27.2,26.6z"/>
				<path id="XMLID_12_" class="st2" d="M27.7,22.2c0.3,0.3,1.1-0.1,1.7-0.6c0.6-0.5,0.9-1.5,0.7-1.7c-0.3-0.3-1.2,0.1-1.7,0.7
					C27.8,21.1,27.4,21.9,27.7,22.2z"/>
				<path id="XMLID_11_" class="st2" d="M27.1,19.8c0.4,0,0.8-0.9,0.8-1.6c0-0.8-0.4-1.7-0.8-1.7s-0.8,0.9-0.8,1.7
					C26.4,19,26.7,19.8,27.1,19.8z"/>
				<path id="XMLID_10_" class="st2" d="M28.9,24.5c0.2,0.3,1.1,0.2,1.8-0.1c0.7-0.4,1.3-1.2,1.1-1.5c-0.2-0.3-1.2-0.2-1.9,0.2
					C29.3,23.4,28.7,24.1,28.9,24.5z"/>
				<path id="XMLID_9_" class="st2" d="M26.8,22.2c-0.3,0.3-1.1-0.1-1.7-0.6c-0.6-0.5-0.9-1.5-0.7-1.7c0.3-0.3,1.2,0.1,1.7,0.7
					C26.8,21.1,27.1,21.9,26.8,22.2z"/>
				<path id="XMLID_8_" class="st2" d="M25.6,24.5c-0.2,0.3-1.1,0.2-1.8-0.1c-0.7-0.4-1.3-1.2-1.1-1.5s1.2-0.2,1.9,0.2
					C25.3,23.4,25.8,24.1,25.6,24.5z"/>
			</g>
			<path id="XMLID_6_" class="st2" d="M18.5,35.1L18.5,35.1c-0.1,0.2,0,0.4,0.1,0.5l7.9,4.9c0.2,0.1,0.4,0.1,0.5-0.1h0
				c0.1-0.2,0-0.4-0.1-0.5L19,34.9C18.8,34.8,18.6,34.9,18.5,35.1z"/>
			<path id="XMLID_5_" class="st2" d="M12.4,44L12.4,44c-0.1,0.2-0.1,0.5,0.1,0.6l14.2,9.2c0.2,0.1,0.5,0.1,0.7-0.1h0
				c0.1-0.2,0.1-0.5-0.1-0.6l-14.2-9.2C12.8,43.7,12.5,43.8,12.4,44z"/>
		</g>
	</g>
</g>
</svg>
